{
    "asset" : {
        "generator" : "Khronos glTF Blender I/O v1.6.16",
        "version" : "2.0"
    },
    "scene" : 0,
    "scenes" : [
        {
            "name" : "Scene",
            "nodes" : [
                0,
                1,
                2,
                3,
                4,
                5,
                6
            ]
        }
    ],
    "nodes" : [
        {
            "mesh" : 0,
            "name" : "Cube",
            "scale" : [
                1,
                1,
                2.742258310317993
            ]
        },
        {
            "name" : "Light",
            "rotation" : [
                0.16907575726509094,
                0.7558803558349609,
                -0.27217137813568115,
                0.570947527885437
            ],
            "translation" : [
                4.076245307922363,
                5.903861999511719,
                -1.0054539442062378
            ]
        },
        {
            "name" : "Camera",
            "rotation" : [
                0.483536034822464,
                0.33687159419059753,
                -0.20870360732078552,
                0.7804827094078064
            ],
            "translation" : [
                7.358891487121582,
                4.958309173583984,
                6.925790786743164
            ]
        },
        {
            "mesh" : 1,
            "name" : "Cube.001",
            "scale" : [
                1,
                1,
                2.742258310317993
            ]
        },
        {
            "mesh" : 2,
            "name" : "Cube.002",
            "scale" : [
                1,
                1,
                2.742258310317993
            ]
        },
        {
            "mesh" : 3,
            "name" : "Cube.003",
            "scale" : [
                1,
                1,
                2.742258310317993
            ]
        },
        {
            "mesh" : 4,
            "name" : "Cube.004",
            "scale" : [
                1,
                1,
                2.742258310317993
            ]
        }
    ],
    "materials" : [
        {
            "doubleSided" : true,
            "name" : "body",
            "pbrMetallicRoughness" : {
                "baseColorFactor" : [
                    0.8000000715255737,
                    0.7820429801940918,
                    0.5044763088226318,
                    1
                ],
                "metallicFactor" : 0,
                "roughnessFactor" : 0.5
            }
        },
        {
            "doubleSided" : true,
            "name" : "tuno",
            "pbrMetallicRoughness" : {
                "baseColorFactor" : [
                    0,
                    0,
                    0,
                    1
                ],
                "metallicFactor" : 0,
                "roughnessFactor" : 0.5
            }
        },
        {
            "doubleSided" : true,
            "name" : "Material",
            "pbrMetallicRoughness" : {
                "baseColorFactor" : [
                    0.001629849779419601,
                    0.004617721773684025,
                    0.005332742817699909,
                    1
                ],
                "metallicFactor" : 0,
                "roughnessFactor" : 0.4000000059604645
            }
        }
    ],
    "meshes" : [
        {
            "name" : "Cube",
            "primitives" : [
                {
                    "attributes" : {
                        "POSITION" : 0,
                        "NORMAL" : 1,
                        "TEXCOORD_0" : 2
                    },
                    "indices" : 3,
                    "material" : 0
                }
            ]
        },
        {
            "name" : "Cube.001",
            "primitives" : [
                {
                    "attributes" : {
                        "POSITION" : 4,
                        "NORMAL" : 5,
                        "TEXCOORD_0" : 6
                    },
                    "indices" : 7,
                    "material" : 1
                }
            ]
        },
        {
            "name" : "Cube.002",
            "primitives" : [
                {
                    "attributes" : {
                        "POSITION" : 8,
                        "NORMAL" : 9,
                        "TEXCOORD_0" : 10
                    },
                    "indices" : 11,
                    "material" : 2
                }
            ]
        },
        {
            "name" : "Cube.003",
            "primitives" : [
                {
                    "attributes" : {
                        "POSITION" : 12,
                        "NORMAL" : 13,
                        "TEXCOORD_0" : 14
                    },
                    "indices" : 15,
                    "material" : 2
                }
            ]
        },
        {
            "name" : "Cube.004",
            "primitives" : [
                {
                    "attributes" : {
                        "POSITION" : 16,
                        "NORMAL" : 17,
                        "TEXCOORD_0" : 18
                    },
                    "indices" : 19,
                    "material" : 2
                }
            ]
        }
    ],
    "accessors" : [
        {
            "bufferView" : 0,
            "componentType" : 5126,
            "count" : 1305,
            "max" : [
                1.1765559911727905,
                1.2244322299957275,
                1.7631604671478271
            ],
            "min" : [
                -1.2122702598571777,
                -2.942544460296631,
                -1.1411957740783691
            ],
            "type" : "VEC3"
        },
        {
            "bufferView" : 1,
            "componentType" : 5126,
            "count" : 1305,
            "type" : "VEC3"
        },
        {
            "bufferView" : 2,
            "componentType" : 5126,
            "count" : 1305,
            "type" : "VEC2"
        },
        {
            "bufferView" : 3,
            "componentType" : 5123,
            "count" : 2019,
            "type" : "SCALAR"
        },
        {
            "bufferView" : 4,
            "componentType" : 5126,
            "count" : 68,
            "max" : [
                1.6359264850616455,
                2.168170928955078,
                1.6155133247375488
            ],
            "min" : [
                0.26484134793281555,
                1.0165016651153564,
                1.4310120344161987
            ],
            "type" : "VEC3"
        },
        {
            "bufferView" : 5,
            "componentType" : 5126,
            "count" : 68,
            "type" : "VEC3"
        },
        {
            "bufferView" : 6,
            "componentType" : 5126,
            "count" : 68,
            "type" : "VEC2"
        },
        {
            "bufferView" : 7,
            "componentType" : 5123,
            "count" : 102,
            "type" : "SCALAR"
        },
        {
            "bufferView" : 8,
            "componentType" : 5126,
            "count" : 80,
            "max" : [
                -0.2588312029838562,
                2.257805347442627,
                1.6116774082183838
            ],
            "min" : [
                -1.368550419807434,
                1.0165016651153564,
                1.4310120344161987
            ],
            "type" : "VEC3"
        },
        {
            "bufferView" : 9,
            "componentType" : 5126,
            "count" : 80,
            "type" : "VEC3"
        },
        {
            "bufferView" : 10,
            "componentType" : 5126,
            "count" : 80,
            "type" : "VEC2"
        },
        {
            "bufferView" : 11,
            "componentType" : 5123,
            "count" : 126,
            "type" : "SCALAR"
        },
        {
            "bufferView" : 12,
            "componentType" : 5126,
            "count" : 36,
            "max" : [
                0.5288180112838745,
                0.9271553754806519,
                1.5035083293914795
            ],
            "min" : [
                0.3068181872367859,
                0.7334240078926086,
                1.4310120344161987
            ],
            "type" : "VEC3"
        },
        {
            "bufferView" : 13,
            "componentType" : 5126,
            "count" : 36,
            "type" : "VEC3"
        },
        {
            "bufferView" : 14,
            "componentType" : 5126,
            "count" : 36,
            "type" : "VEC2"
        },
        {
            "bufferView" : 15,
            "componentType" : 5123,
            "count" : 54,
            "type" : "SCALAR"
        },
        {
            "bufferView" : 16,
            "componentType" : 5126,
            "count" : 36,
            "max" : [
                -0.3035714328289032,
                0.9271553754806519,
                1.5035083293914795
            ],
            "min" : [
                -0.511152446269989,
                0.7334240078926086,
                1.4310120344161987
            ],
            "type" : "VEC3"
        },
        {
            "bufferView" : 17,
            "componentType" : 5126,
            "count" : 36,
            "type" : "VEC3"
        },
        {
            "bufferView" : 18,
            "componentType" : 5126,
            "count" : 36,
            "type" : "VEC2"
        },
        {
            "bufferView" : 19,
            "componentType" : 5123,
            "count" : 54,
            "type" : "SCALAR"
        }
    ],
    "bufferViews" : [
        {
            "buffer" : 0,
            "byteLength" : 15660,
            "byteOffset" : 0
        },
        {
            "buffer" : 0,
            "byteLength" : 15660,
            "byteOffset" : 15660
        },
        {
            "buffer" : 0,
            "byteLength" : 10440,
            "byteOffset" : 31320
        },
        {
            "buffer" : 0,
            "byteLength" : 4038,
            "byteOffset" : 41760
        },
        {
            "buffer" : 0,
            "byteLength" : 816,
            "byteOffset" : 45800
        },
        {
            "buffer" : 0,
            "byteLength" : 816,
            "byteOffset" : 46616
        },
        {
            "buffer" : 0,
            "byteLength" : 544,
            "byteOffset" : 47432
        },
        {
            "buffer" : 0,
            "byteLength" : 204,
            "byteOffset" : 47976
        },
        {
            "buffer" : 0,
            "byteLength" : 960,
            "byteOffset" : 48180
        },
        {
            "buffer" : 0,
            "byteLength" : 960,
            "byteOffset" : 49140
        },
        {
            "buffer" : 0,
            "byteLength" : 640,
            "byteOffset" : 50100
        },
        {
            "buffer" : 0,
            "byteLength" : 252,
            "byteOffset" : 50740
        },
        {
            "buffer" : 0,
            "byteLength" : 432,
            "byteOffset" : 50992
        },
        {
            "buffer" : 0,
            "byteLength" : 432,
            "byteOffset" : 51424
        },
        {
            "buffer" : 0,
            "byteLength" : 288,
            "byteOffset" : 51856
        },
        {
            "buffer" : 0,
            "byteLength" : 108,
            "byteOffset" : 52144
        },
        {
            "buffer" : 0,
            "byteLength" : 432,
            "byteOffset" : 52252
        },
        {
            "buffer" : 0,
            "byteLength" : 432,
            "byteOffset" : 52684
        },
        {
            "buffer" : 0,
            "byteLength" : 288,
            "byteOffset" : 53116
        },
        {
            "buffer" : 0,
            "byteLength" : 108,
            "byteOffset" : 53404
        }
    ],
    "buffers" : [
        {
            "byteLength" : 53512,
            "uri" : "usi.bin"
        }
    ]
}
